<svg version="1.1" id="Layer_1" xmlns="http://www.w3.org/2000/svg" xmlns:xlink="http://www.w3.org/1999/xlink" viewBox="0 0 508 508" xml:space="preserve" fill="#000000" stroke="#000000"><g id="SVGRepo_bgCarrier" stroke-width="0"></g><g id="SVGRepo_tracerCarrier" stroke-linecap="round" stroke-linejoin="round"></g><g id="SVGRepo_iconCarrier"> <path style="fill:#000000;" d="M200.6,0H80.2C72.4,0,66,6.3,66,14.1v479.8c0,7.8,6.3,14.1,14.1,14.1h120.4c7.8,0,14.1-6.3,14.1-14.1 V14.1C214.7,6.3,208.3,0,200.6,0z M186.4,61.4h-37c-7.8,0-14.1,6.3-14.1,14.1s6.3,14.1,14.1,14.1h37v32.1h-18.1 c-7.8,0-14.1,6.3-14.1,14.1s6.3,14.1,14.1,14.1h18.1V182h-37c-7.8,0-14.1,6.3-14.1,14.1s6.3,14.1,14.1,14.1h37v32.1h-18.1 c-7.8,0-14.1,6.3-14.1,14.1c0,7.8,6.3,14.1,14.1,14.1h18.1v32.1h-37c-7.8,0-14.1,6.3-14.1,14.1c0,7.8,6.3,14.1,14.1,14.1h37v32.1 h-18.1c-7.8,0-14.1,6.3-14.1,14.1c0,7.8,6.3,14.1,14.1,14.1h18.1v32.1h-37c-7.8,0-14.1,6.3-14.1,14.1s6.3,14.1,14.1,14.1h37v28.4 H94.3V28.2h92.2v33.2H186.4z"></path> <path style="fill:#56ACE0;" d="M149.4,61.4h37V28.2H94.3v451.6h92.2v-28.4h-37c-7.8,0-14.1-6.3-14.1-14.1c0-7.8,6.3-14.1,14.1-14.1 h37v-32.1h-18.1c-7.8,0-14.1-6.3-14.1-14.1s6.3-14.1,14.1-14.1h18.1v-32.1h-37c-7.8,0-14.1-6.3-14.1-14.1c0-7.8,6.3-14.1,14.1-14.1 h37v-32.1h-18.1c-7.8,0-14.1-6.3-14.1-14.1c0-7.8,6.3-14.1,14.1-14.1h18.1v-32.1h-37c-7.8,0-14.1-6.3-14.1-14.1s6.3-14.1,14.1-14.1 h37v-32.1h-18.1c-7.8,0-14.1-6.3-14.1-14.1s6.3-14.1,14.1-14.1h18.1V89.6h-37c-7.8,0-14.1-6.3-14.1-14.1S141.6,61.4,149.4,61.4z"></path> <polygon style="fill:#FFFFFF;" points="332.8,409.6 367.6,466.8 402.5,409.6 "></polygon> <path style="fill:#56ACE0;" d="M413.7,42.3c0-7.8-6.3-14.1-14.1-14.1h-64c-7.8,0-14.1,6.3-14.1,14.1V85h92.2V42.3z"></path> <g> <rect x="381.8" y="113.2" style="fill:#FFC10D;" width="32" height="268.1"></rect> <rect x="321.6" y="113.2" style="fill:#FFC10D;" width="32" height="268.1"></rect> </g> <path style="fill:#000000;" d="M399.6,0h-64c-23.3,0-42.3,19-42.3,42.3v352.8c0,2.6,0.7,5.1,2.1,7.3l60.2,98.8 c6.2,9.5,18.9,8.4,24.1,0l60.2-98.8c1.3-2.2,2.1-4.8,2.1-7.3V42.3C442,19,423,0,399.6,0z M332.8,409.6h69.7l-34.9,57.2L332.8,409.6z M321.6,381.4V113.2h32v268.1h-32V381.4z M413.7,381.4h-32V113.2h32V381.4z M321.6,42.3c0-7.8,6.3-14.1,14.1-14.1h64 c7.8,0,14.1,6.3,14.1,14.1V85h-92.2L321.6,42.3L321.6,42.3z"></path> </g></svg>